<svg version="1.1" xmlns="http://www.w3.org/2000/svg" xmlns:xlink="http://www.w3.org/1999/xlink" width="24.95224" height="16.28979" viewBox="0,0,24.95224,16.28979"><g transform="translate(-227.66674,-171.8551)"><g data-paper-data="{&quot;isPaintingLayer&quot;:true}" fill="none" fill-rule="nonzero" stroke="#9a9a9a" stroke-width="1" stroke-linejoin="miter" stroke-miterlimit="10" stroke-dasharray="" stroke-dashoffset="0" style="mix-blend-mode: normal"><path d="M252.11898,179.99985c0,4.21553 -2.34113,7.64504 -5.21839,7.64504h-13.51565c-2.87726,0 -5.2182,-3.42921 -5.2182,-7.64504c0,-4.21524 2.34074,-7.64475 5.2182,-7.64475h13.51565c2.87726,0 5.21839,3.42951 5.21839,7.64475z" stroke-linecap="butt"/><path d="M232.96125,186.17795v-11.81101h14.59007v11.81101z" stroke-linecap="butt"/><path d="M228.96635,180.44614c0,-0.86334 0.69988,-1.56322 1.56322,-1.56322c0.86334,0 1.56322,0.69988 1.56322,1.56322c0,0.86334 -0.69988,1.56322 -1.56322,1.56322c-0.86334,0 -1.56322,-0.69988 -1.56322,-1.56322z" stroke-linecap="butt"/><path d="M248.41978,178.88292l2.77906,3.47383" stroke-linecap="round"/><path d="M251.02515,178.88292l-2.43168,3.12644" stroke-linecap="round"/></g></g></svg>