<svg version="1.1" xmlns="http://www.w3.org/2000/svg" xmlns:xlink="http://www.w3.org/1999/xlink" width="14.39067" height="14.43495" viewBox="0,0,14.39067,14.43495"><g transform="translate(-233.3069,-172.29002)"><g data-paper-data="{&quot;isPaintingLayer&quot;:true}" fill-rule="nonzero" stroke="#ffffff" stroke-width="0.5" stroke-linecap="butt" stroke-linejoin="miter" stroke-miterlimit="10" stroke-dasharray="" stroke-dashoffset="0" style="mix-blend-mode: normal"><g><path d="M234.24472,185.74287v-13.20285h13.20285v13.20285z" fill="none"/><path d="M233.55847,186.46347v-13.20285h13.20285v13.20285z" fill="none"/><path d="M241.55713,186.47498c-0.67899,-0.04318 -0.43778,-0.00853 -0.87829,-0.02469c-0.53736,-0.01972 -0.93763,0.00291 -1.16201,-0.00349c-0.7853,-0.02241 -0.75197,0.02799 -2.35698,0.02799c-1.71133,0 -2.43337,0.00267 -3.57466,-0.00101c-0.05265,-0.00017 -0.07586,-0.26799 -0.0283,-0.37568c0.05121,-0.11595 0.00812,-0.09685 0.00812,-0.63717c0,-3.41592 1.1322,-6.08219 3.59484,-6.08219c2.46264,0 7.80631,7.31302 4.39727,7.09623z" fill="#ffffff"/><path d="M244.16045,181.32734c1.76214,0 2.57228,1.90785 2.57228,4.3521c0,0.38663 -0.03083,0.37296 0.00581,0.45593c0.03403,0.07706 0.01742,0.26869 -0.02025,0.26881c-0.81665,0.00263 -1.3333,0.00072 -2.55784,0.00072c-1.14846,0 -1.12461,-0.03606 -1.68653,-0.02003c-0.16056,0.00458 -0.44696,-0.01161 -0.83147,0.0025c-0.3152,0.01157 -0.14261,-0.01323 -0.62846,0.01767c-2.43933,0.15512 1.38433,-5.0777 3.14646,-5.0777z" data-paper-data="{&quot;index&quot;:null}" fill="#ffffff"/></g></g></g></svg>