<svg version="1.1" xmlns="http://www.w3.org/2000/svg" xmlns:xlink="http://www.w3.org/1999/xlink" width="17.74759" height="16.08445" viewBox="0,0,17.74759,16.08445"><g transform="translate(-231.1262,-171.95778)"><g data-paper-data="{&quot;isPaintingLayer&quot;:true}" fill="#ffffff" fill-rule="nonzero" stroke-linecap="butt" stroke-linejoin="miter" stroke-miterlimit="10" stroke-dasharray="" stroke-dashoffset="0" style="mix-blend-mode: normal"><g><path d="M239.3608,177.20105v0v0z" stroke="#000000" stroke-width="2"/><path d="M238.05987,184.65978c0,1.38908 -1.55215,2.51515 -3.46683,2.51515c-1.91468,0 -3.46683,-1.12607 -3.46683,-2.51515c0,-1.38908 1.55215,-2.51515 3.46683,-2.51515c1.91468,0 3.46683,1.12607 3.46683,2.51515z" stroke="none" stroke-width="0"/><path d="M236.06509,185.52707v-11.96865h1.73459v11.96865z" stroke="none" stroke-width="0"/><path d="M236.321,171.95778l12.5528,1.65529l-0.22867,1.71946l-12.5528,-1.65529z" stroke="none" stroke-width="0"/><path d="M248.8143,185.52707c0,1.38908 -1.55215,2.51515 -3.46683,2.51515c-1.91468,0 -3.46683,-1.12607 -3.46683,-2.51515c0,-1.38908 1.55215,-2.51515 3.46683,-2.51515c1.91468,0 3.46683,1.12607 3.46683,2.51515z" stroke="none" stroke-width="0"/><path d="M246.81953,186.39436v-11.96865h1.73459v11.96865z" stroke="none" stroke-width="0"/></g></g></g></svg>