<svg version="1.1" xmlns="http://www.w3.org/2000/svg" xmlns:xlink="http://www.w3.org/1999/xlink" width="50.00519" height="50.0052" viewBox="0,0,50.00519,50.0052"><g transform="translate(-214.99741,-179.75678)"><g data-paper-data="{&quot;isPaintingLayer&quot;:true}" fill="none" fill-rule="nonzero" stroke="#ffffff" stroke-width="2" stroke-linejoin="miter" stroke-miterlimit="10" stroke-dasharray="" stroke-dashoffset="0" style="mix-blend-mode: normal"><path d="M215.99741,204.75938c0,-13.25627 10.74633,-24.0026 24.0026,-24.0026c13.25627,0 24.00259,10.74633 24.00259,24.0026c0,13.25627 -10.74633,24.0026 -24.00259,24.0026c-13.25627,0 -24.0026,-10.74633 -24.0026,-24.0026z" stroke-linecap="butt"/><path d="M250.43643,212.92807c-2.42597,3.0951 -6.19895,5.0839 -10.43643,5.0839c-7.3192,0 -13.25259,-5.93339 -13.25259,-13.2526c0,-7.3192 5.93339,-13.25259 13.25259,-13.25259c7.3192,0 13.25259,5.93339 13.25259,13.25259c0,0.15092 -0.00252,0.30125 -0.00753,0.45095" stroke-linecap="butt"/><path d="M253.35442,205.0941l-4.83333,-2.88333" stroke-linecap="round"/><path d="M253.5211,205.17744l2.66666,-3.71667" data-paper-data="{&quot;index&quot;:null}" stroke-linecap="round"/></g></g></svg>