<svg version="1.1" xmlns="http://www.w3.org/2000/svg" xmlns:xlink="http://www.w3.org/1999/xlink" width="151.01101" height="255.71227" viewBox="0,0,151.01101,255.71227"><defs><linearGradient x1="246.74285" y1="108.01901" x2="246.74285" y2="189.41991" gradientUnits="userSpaceOnUse" id="color-1"><stop offset="0" stop-color="#4b5b5c"/><stop offset="1" stop-color="#7b7cff"/></linearGradient><linearGradient x1="170.84934" y1="285.40568" x2="320.08432" y2="285.40568" gradientUnits="userSpaceOnUse" id="color-2"><stop offset="0" stop-color="#7b7aff"/><stop offset="1" stop-color="#7aa3ff"/></linearGradient><linearGradient x1="171.29305" y1="218.81347" x2="319.96905" y2="218.81347" gradientUnits="userSpaceOnUse" id="color-3"><stop offset="0" stop-color="#7b7aff"/><stop offset="1" stop-color="#7aa4ff"/></linearGradient><linearGradient x1="171.98008" y1="287.75098" x2="319.1711" y2="287.75098" gradientUnits="userSpaceOnUse" id="color-4"><stop offset="0" stop-color="#7b7aff"/><stop offset="1" stop-color="#7aa4ff"/></linearGradient><linearGradient x1="246.13907" y1="115.07146" x2="246.13907" y2="196.47236" gradientUnits="userSpaceOnUse" id="color-5"><stop offset="0" stop-color="#19352f"/><stop offset="1" stop-color="#7b7aff"/></linearGradient></defs><g transform="translate(-170.59934,-70.64386)"><g data-paper-data="{&quot;isPaintingLayer&quot;:true}" fill-rule="nonzero" stroke-linecap="butt" stroke-linejoin="miter" stroke-miterlimit="10" stroke-dasharray="" stroke-dashoffset="0" style="mix-blend-mode: normal"><path d="M321.36035,148.71946c0,22.47823 -33.40739,40.70045 -74.61749,40.70045c-41.2101,0 -74.61749,-18.22221 -74.61749,-40.70045c0,-22.47823 33.40739,-40.70045 74.61749,-40.70045c41.2101,0 74.61749,18.22221 74.61749,40.70045z" data-paper-data="{&quot;origPos&quot;:null}" fill="url(#color-1)" stroke="#000000" stroke-width="0.5"/><path d="M320.08432,285.40568c0,22.47823 -33.40739,40.70045 -74.61749,40.70045c-41.2101,0 -74.61749,-18.22221 -74.61749,-40.70045c0,-22.47823 33.40739,-40.70045 74.61749,-40.70045c41.2101,0 74.61749,18.22221 74.61749,40.70045z" data-paper-data="{&quot;origPos&quot;:null}" fill="url(#color-2)" stroke="#000000" stroke-width="0.5"/><path d="M171.29305,289.53325v-141.43956h0.51423c-0.35415,3.00516 0.4498,5.63476 1.99397,7.82927c0.12066,0.53111 0.28352,1.0511 0.48748,1.55058c0.8868,2.17175 2.34246,3.94914 4.0625,5.51c2.72541,4.29359 7.71473,9.33491 10.97934,10.96722c1.03776,0.51888 2.09525,0.82203 3.13565,0.93366c2.21082,2.91688 5.09151,3.83242 7.78292,4.40886c3.92334,3.11904 9.22495,4.4844 14.5994,4.74232c0.45844,0.29457 0.91087,0.55187 1.30386,0.64516c5.37313,1.27546 8.75847,2.69137 13.17465,1.8556c3.09163,0.73479 7.8972,1.71646 11.37457,1.38152c6.28508,1.13825 12.59296,0.33359 19.03283,-0.12408c3.71108,-0.26374 7.15881,-1.03394 10.54864,-2.1411c0.8338,0.07272 1.67058,0.05987 2.48552,-0.04813c2.97231,-0.3939 5.8706,-2.01759 8.67682,-3.05568c6.38601,-2.36234 13.26629,-1.90492 18.86968,-6.66679c1.47589,-1.25424 5.92755,-3.3989 6.41863,-5.28293c0.01272,-0.04879 0.03135,-0.10008 0.05558,-0.15373c1.18117,-0.43388 2.7699,-2.28411 3.51883,-3.10811c0.31825,-0.35015 0.66416,-0.72441 1.02945,-1.12041c1.79623,-1.46643 3.52423,-2.93514 3.93883,-3.90623c0.19124,-0.44793 0.4113,-0.94173 0.64951,-1.47243c2.24271,-3.01908 4.07934,-6.45135 3.95746,-9.85175c0.02999,-0.08178 0.05856,-0.16424 0.08566,-0.24738v138.79411z" data-paper-data="{&quot;origPos&quot;:null}" fill="url(#color-3)" stroke="#000000" stroke-width="0.5"/><path d="M171.98008,290.32039v-5.13884h147.19102v5.13884z" data-paper-data="{&quot;origPos&quot;:null}" fill="url(#color-4)" stroke="none" stroke-width="0"/><path d="M320.75656,155.77191c0,22.47823 -33.40739,40.70045 -74.61749,40.70045c-41.2101,0 -74.61749,-18.22221 -74.61749,-40.70045c0,-22.47823 33.40739,-40.70045 74.61749,-40.70045c41.2101,0 74.61749,18.22221 74.61749,40.70045z" data-paper-data="{&quot;origPos&quot;:null}" fill="url(#color-5)" stroke="#000000" stroke-width="0.5"/><path d="M320.43941,143.60131c0,22.47824 -33.40739,40.70045 -74.61749,40.70045c-41.2101,0 -74.61749,-18.22221 -74.61749,-40.70045c0,-22.47824 33.40739,-40.70045 74.61749,-40.70045c41.2101,0 74.61749,18.22221 74.61749,40.70045z" data-paper-data="{&quot;origPos&quot;:null}" fill="#9c9cff" stroke="#000000" stroke-width="0.5"/><g stroke="#000000" stroke-width="0.5"><path d="M200.73389,110.86944l-12.16508,-39.97099c0,0 17.98269,0.24244 26.78043,5.85235c7.05555,4.499 12.93636,6.19951 18.31552,12.60939c3.08586,3.67716 5.30225,11.95096 5.30225,11.95096l-19.11656,3.47574c0,0 -2.83131,0.34791 -3.53117,0.57059c-2.09957,0.66805 -15.58539,5.51195 -15.58539,5.51195z" data-paper-data="{&quot;origPos&quot;:null}" fill="#7a99ff"/><path d="M280.49918,106.86326c-0.69986,-0.22268 -3.53117,-0.5706 -3.53117,-0.5706l-19.11656,-3.47574c0,0 2.2164,-8.27381 5.30226,-11.95096c5.37915,-6.40988 11.25996,-8.1104 18.31551,-12.60939c8.79774,-5.60991 26.78043,-5.85235 26.78043,-5.85235l-12.16508,39.97099c0,0 -13.48582,-4.8439 -15.58539,-5.51194z" data-paper-data="{&quot;origPos&quot;:null,&quot;index&quot;:null}" fill="#7a99ff"/><path d="M228.43216,87.64366c2.42524,4.6888 -2.17412,11.88573 -10.27296,16.07479c-8.09884,4.18906 -16.6303,3.78393 -19.05555,-0.90487c-2.42524,-4.6888 2.17412,-11.88573 10.27296,-16.07479c8.09884,-4.18906 16.6303,-3.78393 19.05555,0.90487z" data-paper-data="{&quot;origPos&quot;:null,&quot;origRot&quot;:0}" fill="#0d101b"/><path d="M286.57292,87.37562c8.09884,4.18906 12.69821,11.38599 10.27296,16.07479c-2.42525,4.6888 -10.9567,5.09393 -19.05555,0.90487c-8.09884,-4.18906 -12.69821,-11.38599 -10.27296,-16.07479c2.42525,-4.6888 10.9567,-5.09393 19.05555,-0.90487z" data-paper-data="{&quot;origPos&quot;:null,&quot;origRot&quot;:0,&quot;index&quot;:null}" fill="#0d101b"/></g><text transform="translate(205.48438,243.03687) scale(1.05,1.05)" font-size="40" xml:space="preserve" fill="#000000" fill-rule="nonzero" stroke="none" stroke-width="1" stroke-linecap="butt" stroke-linejoin="miter" stroke-miterlimit="10" stroke-dasharray="" stroke-dashoffset="0" font-family="Sans Serif" font-weight="normal" text-anchor="start" style="mix-blend-mode: normal"><tspan x="0" dy="0">暗黑</tspan><tspan x="0" dy="46.15px">堅果</tspan></text></g></g></svg>