<svg version="1.1" xmlns="http://www.w3.org/2000/svg" xmlns:xlink="http://www.w3.org/1999/xlink" width="12.3098" height="16.42154" viewBox="0,0,12.3098,16.42154"><g transform="translate(-233.8451,-171.64183)"><g data-paper-data="{&quot;isPaintingLayer&quot;:true}" fill="#ffffff" fill-rule="nonzero" stroke="#ffffff" stroke-width="2" stroke-linejoin="miter" stroke-miterlimit="10" stroke-dasharray="" stroke-dashoffset="0" style="mix-blend-mode: normal"><g><path d="M234.8451,176.99557c0,-0.72137 0.16931,-1.40321 0.47035,-2.00793c0.38377,0.70867 0.9448,1.63987 1.43798,2.37407c0.16547,0.41261 0.43777,0.77086 0.78268,1.04053c0.05393,0.05614 0.10136,0.09875 0.14104,0.12571c0.91471,0.62145 1.72147,0.59652 2.34604,0.21749c0.91037,-0.37358 1.55151,-1.26881 1.55151,-2.31379c0,-0.41989 -0.10352,-0.81561 -0.28643,-1.16302l-0.50212,-1.07367c-0.16323,-0.65294 -0.32892,-0.75485 -0.71826,-1.25831c2.22144,0.28124 3.80035,1.76116 3.80035,4.05894c0,2.49167 -2.01991,4.51157 -4.51158,4.51157c-2.49167,0 -4.51157,-2.0199 -4.51157,-4.51157z" stroke-linecap="butt"/><path d="M241.15066,180.66201l3.7697,6.40136" stroke-linecap="round"/><path d="M241.3852,179.33177l3.7697,6.40136" stroke-linecap="round"/></g></g></g></svg>